<mxfile host="app.diagrams.net" agent="Mozilla/5.0 (Windows NT 10.0; Win64; x64) AppleWebKit/537.36 (KHTML, like Gecko) Chrome/138.0.0.0 Safari/537.36" version="28.0.6">
  <diagram name="Trang-1" id="E3cUf46hJjKf7Pt-dsat">
    <mxGraphModel dx="2560" dy="1029" grid="1" gridSize="10" guides="1" tooltips="1" connect="1" arrows="1" fold="1" page="1" pageScale="1" pageWidth="827" pageHeight="1169" math="0" shadow="0">
      <root>
        <mxCell id="0" />
        <mxCell id="1" value="01. Network" style="locked=1;" parent="0" />
        <mxCell id="NN6T2k52rA_mcUEyvSS7-6" value="AWS Cloud" style="points=[[0,0],[0.25,0],[0.5,0],[0.75,0],[1,0],[1,0.25],[1,0.5],[1,0.75],[1,1],[0.75,1],[0.5,1],[0.25,1],[0,1],[0,0.75],[0,0.5],[0,0.25]];outlineConnect=0;gradientColor=none;html=1;whiteSpace=wrap;fontSize=14;fontStyle=1;container=1;pointerEvents=0;collapsible=0;recursiveResize=0;shape=mxgraph.aws4.group;grIcon=mxgraph.aws4.group_aws_cloud_alt;strokeColor=#232F3E;fillColor=none;verticalAlign=top;align=left;spacingLeft=30;fontColor=#232F3E;dashed=0;" parent="1" vertex="1">
          <mxGeometry y="400" width="1800" height="920" as="geometry" />
        </mxCell>
        <mxCell id="NN6T2k52rA_mcUEyvSS7-7" value="Region" style="points=[[0,0],[0.25,0],[0.5,0],[0.75,0],[1,0],[1,0.25],[1,0.5],[1,0.75],[1,1],[0.75,1],[0.5,1],[0.25,1],[0,1],[0,0.75],[0,0.5],[0,0.25]];outlineConnect=0;gradientColor=none;html=1;whiteSpace=wrap;fontSize=14;fontStyle=1;container=1;pointerEvents=0;collapsible=0;recursiveResize=0;shape=mxgraph.aws4.group;grIcon=mxgraph.aws4.group_region;strokeColor=#00A4A6;fillColor=none;verticalAlign=top;align=left;spacingLeft=30;fontColor=#147EBA;dashed=1;" parent="NN6T2k52rA_mcUEyvSS7-6" vertex="1">
          <mxGeometry x="160" y="40" width="1600" height="840" as="geometry" />
        </mxCell>
        <mxCell id="NN6T2k52rA_mcUEyvSS7-8" value="Private subnet" style="points=[[0,0],[0.25,0],[0.5,0],[0.75,0],[1,0],[1,0.25],[1,0.5],[1,0.75],[1,1],[0.75,1],[0.5,1],[0.25,1],[0,1],[0,0.75],[0,0.5],[0,0.25]];outlineConnect=0;gradientColor=none;html=1;whiteSpace=wrap;fontSize=14;fontStyle=1;container=1;pointerEvents=0;collapsible=0;recursiveResize=0;shape=mxgraph.aws4.group;grIcon=mxgraph.aws4.group_security_group;grStroke=0;strokeColor=#00A4A6;fillColor=#E6F6F7;verticalAlign=top;align=left;spacingLeft=30;fontColor=#147EBA;dashed=0;" parent="NN6T2k52rA_mcUEyvSS7-7" vertex="1">
          <mxGeometry x="520" y="200" width="560" height="440" as="geometry" />
        </mxCell>
        <mxCell id="NN6T2k52rA_mcUEyvSS7-11" value="VPC" style="points=[[0,0],[0.25,0],[0.5,0],[0.75,0],[1,0],[1,0.25],[1,0.5],[1,0.75],[1,1],[0.75,1],[0.5,1],[0.25,1],[0,1],[0,0.75],[0,0.5],[0,0.25]];outlineConnect=0;gradientColor=none;html=1;whiteSpace=wrap;fontSize=14;fontStyle=1;container=1;pointerEvents=0;collapsible=0;recursiveResize=0;shape=mxgraph.aws4.group;grIcon=mxgraph.aws4.group_vpc2;strokeColor=#8C4FFF;fillColor=none;verticalAlign=top;align=left;spacingLeft=30;fontColor=#AAB7B8;dashed=0;" parent="NN6T2k52rA_mcUEyvSS7-7" vertex="1">
          <mxGeometry x="120" y="160" width="1000" height="520" as="geometry" />
        </mxCell>
        <mxCell id="NN6T2k52rA_mcUEyvSS7-9" value="Public subnet" style="points=[[0,0],[0.25,0],[0.5,0],[0.75,0],[1,0],[1,0.25],[1,0.5],[1,0.75],[1,1],[0.75,1],[0.5,1],[0.25,1],[0,1],[0,0.75],[0,0.5],[0,0.25]];outlineConnect=0;gradientColor=none;html=1;whiteSpace=wrap;fontSize=14;fontStyle=1;container=1;pointerEvents=0;collapsible=0;recursiveResize=0;shape=mxgraph.aws4.group;grIcon=mxgraph.aws4.group_security_group;grStroke=0;strokeColor=#7AA116;fillColor=#F2F6E8;verticalAlign=top;align=left;spacingLeft=30;fontColor=#248814;dashed=0;" parent="NN6T2k52rA_mcUEyvSS7-11" vertex="1">
          <mxGeometry x="80" y="40" width="290" height="440" as="geometry" />
        </mxCell>
        <mxCell id="NN6T2k52rA_mcUEyvSS7-12" value="IGW" style="sketch=0;outlineConnect=0;fontColor=#232F3E;gradientColor=none;fillColor=#8C4FFF;strokeColor=none;dashed=0;verticalLabelPosition=bottom;verticalAlign=top;align=center;html=1;fontSize=14;fontStyle=1;aspect=fixed;pointerEvents=1;shape=mxgraph.aws4.internet_gateway;" parent="NN6T2k52rA_mcUEyvSS7-11" vertex="1">
          <mxGeometry x="-30" y="200" width="60" height="60" as="geometry" />
        </mxCell>
        <mxCell id="NN6T2k52rA_mcUEyvSS7-22" value="" style="rounded=0;whiteSpace=wrap;html=1;fillColor=none;strokeColor=#d79b00;" parent="NN6T2k52rA_mcUEyvSS7-11" vertex="1">
          <mxGeometry x="430" y="80" width="210" height="240" as="geometry" />
        </mxCell>
        <mxCell id="NN6T2k52rA_mcUEyvSS7-23" value="ECS&lt;div&gt;Cluster&lt;/div&gt;" style="sketch=0;points=[[0,0,0],[0.25,0,0],[0.5,0,0],[0.75,0,0],[1,0,0],[0,1,0],[0.25,1,0],[0.5,1,0],[0.75,1,0],[1,1,0],[0,0.25,0],[0,0.5,0],[0,0.75,0],[1,0.25,0],[1,0.5,0],[1,0.75,0]];outlineConnect=0;fontColor=#232F3E;fillColor=#ED7100;strokeColor=#ffffff;dashed=0;verticalLabelPosition=bottom;verticalAlign=top;align=center;html=1;fontSize=12;fontStyle=0;aspect=fixed;shape=mxgraph.aws4.resourceIcon;resIcon=mxgraph.aws4.ecs;" parent="NN6T2k52rA_mcUEyvSS7-11" vertex="1">
          <mxGeometry x="430" y="80" width="65" height="65" as="geometry" />
        </mxCell>
        <mxCell id="NN6T2k52rA_mcUEyvSS7-33" value="VPC&lt;div&gt;Endpoint&lt;/div&gt;" style="sketch=0;outlineConnect=0;fontColor=#232F3E;gradientColor=none;fillColor=#8C4FFF;strokeColor=none;dashed=0;verticalLabelPosition=bottom;verticalAlign=top;align=center;html=1;fontSize=12;fontStyle=1;aspect=fixed;pointerEvents=1;shape=mxgraph.aws4.endpoints;" parent="NN6T2k52rA_mcUEyvSS7-11" vertex="1">
          <mxGeometry x="520" y="360" width="65" height="65" as="geometry" />
        </mxCell>
        <mxCell id="NN6T2k52rA_mcUEyvSS7-34" value="VPC&lt;div&gt;Endpoint&lt;/div&gt;" style="sketch=0;outlineConnect=0;fontColor=#232F3E;gradientColor=none;fillColor=#8C4FFF;strokeColor=none;dashed=0;verticalLabelPosition=bottom;verticalAlign=top;align=center;html=1;fontSize=12;fontStyle=1;aspect=fixed;pointerEvents=1;shape=mxgraph.aws4.endpoints;" parent="NN6T2k52rA_mcUEyvSS7-11" vertex="1">
          <mxGeometry x="820" y="360" width="65" height="65" as="geometry" />
        </mxCell>
        <mxCell id="NN6T2k52rA_mcUEyvSS7-35" value="VPC&lt;div&gt;Endpoint&lt;/div&gt;" style="sketch=0;outlineConnect=0;fontColor=#232F3E;gradientColor=none;fillColor=#8C4FFF;strokeColor=none;dashed=0;verticalLabelPosition=bottom;verticalAlign=top;align=center;html=1;fontSize=12;fontStyle=1;aspect=fixed;pointerEvents=1;shape=mxgraph.aws4.endpoints;" parent="NN6T2k52rA_mcUEyvSS7-11" vertex="1">
          <mxGeometry x="810" y="80" width="65" height="65" as="geometry" />
        </mxCell>
        <mxCell id="NN6T2k52rA_mcUEyvSS7-40" value="S3&lt;div&gt;Bucket&lt;/div&gt;" style="sketch=0;points=[[0,0,0],[0.25,0,0],[0.5,0,0],[0.75,0,0],[1,0,0],[0,1,0],[0.25,1,0],[0.5,1,0],[0.75,1,0],[1,1,0],[0,0.25,0],[0,0.5,0],[0,0.75,0],[1,0.25,0],[1,0.5,0],[1,0.75,0]];outlineConnect=0;fontColor=#232F3E;fillColor=#7AA116;strokeColor=#ffffff;dashed=0;verticalLabelPosition=bottom;verticalAlign=top;align=center;html=1;fontSize=13;fontStyle=1;aspect=fixed;shape=mxgraph.aws4.resourceIcon;resIcon=mxgraph.aws4.s3;" parent="NN6T2k52rA_mcUEyvSS7-7" vertex="1">
          <mxGeometry x="1160" y="620" width="65" height="65" as="geometry" />
        </mxCell>
        <mxCell id="NN6T2k52rA_mcUEyvSS7-15" style="edgeStyle=orthogonalEdgeStyle;rounded=0;orthogonalLoop=1;jettySize=auto;html=1;fontStyle=1;fontSize=14;" parent="NN6T2k52rA_mcUEyvSS7-6" source="NN6T2k52rA_mcUEyvSS7-10" target="NN6T2k52rA_mcUEyvSS7-12" edge="1">
          <mxGeometry relative="1" as="geometry" />
        </mxCell>
        <mxCell id="NN6T2k52rA_mcUEyvSS7-10" value="Route53" style="sketch=0;points=[[0,0,0],[0.25,0,0],[0.5,0,0],[0.75,0,0],[1,0,0],[0,1,0],[0.25,1,0],[0.5,1,0],[0.75,1,0],[1,1,0],[0,0.25,0],[0,0.5,0],[0,0.75,0],[1,0.25,0],[1,0.5,0],[1,0.75,0]];outlineConnect=0;fontColor=#232F3E;fillColor=#8C4FFF;strokeColor=#ffffff;dashed=0;verticalLabelPosition=bottom;verticalAlign=top;align=center;html=1;fontSize=14;fontStyle=1;aspect=fixed;shape=mxgraph.aws4.resourceIcon;resIcon=mxgraph.aws4.route_53;" parent="NN6T2k52rA_mcUEyvSS7-6" vertex="1">
          <mxGeometry x="37" y="400" width="60" height="60" as="geometry" />
        </mxCell>
        <mxCell id="NN6T2k52rA_mcUEyvSS7-13" value="users" style="sketch=0;outlineConnect=0;gradientColor=none;fontColor=#545B64;strokeColor=none;fillColor=#879196;dashed=0;verticalLabelPosition=bottom;verticalAlign=top;align=center;html=1;fontSize=14;fontStyle=1;aspect=fixed;shape=mxgraph.aws4.illustration_users;pointerEvents=1" parent="1" vertex="1">
          <mxGeometry x="-220" y="793" width="75" height="75" as="geometry" />
        </mxCell>
        <mxCell id="NN6T2k52rA_mcUEyvSS7-14" style="edgeStyle=orthogonalEdgeStyle;rounded=0;orthogonalLoop=1;jettySize=auto;html=1;entryX=0;entryY=0.5;entryDx=0;entryDy=0;entryPerimeter=0;fontStyle=1;fontSize=14;" parent="1" source="NN6T2k52rA_mcUEyvSS7-13" target="NN6T2k52rA_mcUEyvSS7-10" edge="1">
          <mxGeometry relative="1" as="geometry" />
        </mxCell>
        <mxCell id="NN6T2k52rA_mcUEyvSS7-2" value="02. Application" style="locked=1;" parent="0" />
        <mxCell id="NN6T2k52rA_mcUEyvSS7-18" value="ALB&lt;div&gt;&lt;br&gt;&lt;/div&gt;" style="sketch=0;outlineConnect=0;fontColor=#232F3E;gradientColor=none;fillColor=#8C4FFF;strokeColor=none;dashed=0;verticalLabelPosition=bottom;verticalAlign=top;align=center;html=1;fontSize=12;fontStyle=0;aspect=fixed;pointerEvents=1;shape=mxgraph.aws4.application_load_balancer;" parent="NN6T2k52rA_mcUEyvSS7-2" vertex="1">
          <mxGeometry x="460" y="798" width="65" height="65" as="geometry" />
        </mxCell>
        <mxCell id="NN6T2k52rA_mcUEyvSS7-20" style="edgeStyle=orthogonalEdgeStyle;rounded=0;orthogonalLoop=1;jettySize=auto;html=1;" parent="NN6T2k52rA_mcUEyvSS7-2" source="NN6T2k52rA_mcUEyvSS7-19" target="NN6T2k52rA_mcUEyvSS7-18" edge="1">
          <mxGeometry relative="1" as="geometry" />
        </mxCell>
        <mxCell id="NN6T2k52rA_mcUEyvSS7-19" value="ACM" style="sketch=0;points=[[0,0,0],[0.25,0,0],[0.5,0,0],[0.75,0,0],[1,0,0],[0,1,0],[0.25,1,0],[0.5,1,0],[0.75,1,0],[1,1,0],[0,0.25,0],[0,0.5,0],[0,0.75,0],[1,0.25,0],[1,0.5,0],[1,0.75,0]];outlineConnect=0;fontColor=#232F3E;fillColor=#DD344C;strokeColor=#ffffff;dashed=0;verticalLabelPosition=bottom;verticalAlign=top;align=center;html=1;fontSize=12;fontStyle=0;aspect=fixed;shape=mxgraph.aws4.resourceIcon;resIcon=mxgraph.aws4.certificate_manager_3;" parent="NN6T2k52rA_mcUEyvSS7-2" vertex="1">
          <mxGeometry x="460" y="1169" width="65" height="65" as="geometry" />
        </mxCell>
        <mxCell id="NN6T2k52rA_mcUEyvSS7-21" style="edgeStyle=orthogonalEdgeStyle;rounded=0;orthogonalLoop=1;jettySize=auto;html=1;" parent="NN6T2k52rA_mcUEyvSS7-2" source="NN6T2k52rA_mcUEyvSS7-12" target="NN6T2k52rA_mcUEyvSS7-18" edge="1">
          <mxGeometry relative="1" as="geometry" />
        </mxCell>
        <mxCell id="NN6T2k52rA_mcUEyvSS7-28" value="Streamlit&#xa;App" style="shape=image;verticalLabelPosition=bottom;labelBackgroundColor=none;verticalAlign=top;aspect=fixed;imageAspect=0;image=data:image/png,iVBORw0KGgoAAAANSUhEUgAAASAAAAEgCAYAAAAUg66AAAAQT3pUWHRSYXcgcHJvZmlsZSB0eXBlIGV4aWYAAHja7Zlbcls5DobfuYpZAsEbyOXwAlbNDmb58+FIdhInmenu6se2K5EsSzwk8OO/HAf7z79v+BdfpfQeStXeRmuRrzLKSJMnPb6+Xo8Sy/P/85U+nsmPr4fPXyQeM4/59Ytmr0eZvF6/fUDL+/X14+tB9/tK/b3Q+xcfC2a/MleL573J90I5vV6X989hpNeT2b47zvtf2/F5Vd6LfP25KMU4lfVyCsmy5Pj8319Xyv5P8vTX+T9lrvV+XvhpZr5+rl947+OXBYy/qV/c79fzt3K8Fvo4VvtSp/frUn9dv6dK3+9I0ueV0/c7avfb1r7W797T77XX6WZpgXK196E+jvI8442Lcr6q0fhW/lWe6/M9+O5xxk3XDkddIS5+GJKo5pUiR6Zcsedxy2aLJVlSHlPa9MBf61nTSDt7C4p/y00a8sgnd7qx6Vz2vnzuRZ7rDr8eF+tc+QjvTMJiwid++A5fX/ir3z8sdK/DXCT2z1qxr+SQZRveOf+fd9EQue+a1qe+El4P8euXNzbTwfqUuXPAGddriVXlG7by0+cca+CtJb7mRfS8F6BEXLuyGcl0IDbJVZpETUlFqGOnP5Odp1zSogNSQ02HXaaSc6M5Pfm1+YzK895U0+tl6IVG1Nyy0pqRJ80qpZbGvHUgNEPNtdRaW9Xa66iz5VZaba1pc56amrVo1aaqXYfOnnvptbeuvffR50gjQ2M1jDZ09DHGnFx0lslak/dPXlhp5VVWXW3p6musuYHPLrvutnX3PfY86eQDBYTTjp5+xpkmBpSsWLVmat2GzQvWbr7l1tuu3n7HnZ9de3f1x6597dz/7pq8u5aeRvn79FvXeFn1YwlxOqneMzqWitBx9Q4A6OQ9i11KSd4571kcKYeca2KX1ZtzxDtGB4tJqlc+e/etc7/tW6C6f7Zv6VedC966v6NzwVv3Xed+7tsvunbmQ7f5aZBPITWFITPjxxusz9Sn69Jfegx/9YP/LPR3LbRaLu1GO8fQgd07EKa9rhHRJlBRneUAONtrajGtKdS9IrBt+UhdOg9uySwX7XimnOY+cTgg0xyw5lWpfTBkfK8px8di1mR1zLBy9J0kcN2rlOo25a88hj/xAWmN8bBySromq/TLLNYl4yKsYaPfObV1Kkq6J1Nje+ZVe2GQehb0s4zLYI9s0o6UNlZDA8bIovibPc6GayUYa966tfqY55WwBpO6rThsN9mMWmd8KLZmlqlWVxnt5mSMYpHeZDCO45TAQA4ta92RTqtWeHm6MaM9m0/Pc5qvRfmZ7lxu04qyWBKXH8vrzn43Jwxp3LRWPn1ubMGwY7IRqD7EmnppaOm4DPrzPP72MXx9gd1ZbCuudgq0w2FtJkmzKNajA5GJ36XwQ84FLBNcDZNyQtKal960zyoKpVzKB9HXlNbmQJsW1ZOuv2kdZ8her7Z8185T2HnffV6IOKRWID7tU/vl8qVEW/QTik+rgz/OOeDSpocCltlrgx9n35bGcr4rTUexdYLFue5JZZXTTKZNrC8/zXn37vlsPXl13rDg5jv90LnuG2HPM8FJ7h1+NaNr2dpuC+4F/+cOMG7Av8DFrZU4jjE0HF3v9HPHnDeiMM8+TXdSCtQXbx8hwcmTw9+9GtxOtVc3PjM0Hy5va3HKmipKsk+tCFLqe6FM6WO4OCd2MHwZfRa/cTTeSznOqqfYJI70eM9hRRnrXE7VljD0oHbVtIDmaQFgFarLyMZtFNSKF8QHZlJQYFB423SnjejmSY9tssxklNDColMHtdUT5kZdymr19pX2M54olp70OaqbJm/4qa4KQeBUYRRYRC5ob3Hrukb9A6BafBSHdk4FOrhvipeH8Bh9Xg7luepQSoMfLn4ZTcxyLdV8ojdg2B1hGh/La66cTRnbne7K4zL+tp8upfHa5hpWf0kw7VHvcJB0eKWUMwDqpc5Y27tpGVS58QgJ5XX20IMRADypbpsxaxfDM9xzmxy1EYzOJEOJ5YACJhaAUzBjTq3DztALhsJ4ZjZrT8bWc9vXp3Cx0K3MEOwcqCrcNrgMc2MRDJyyveoYitE32YKs0hTqW5nyTKg8PbGuDG8yOO3nAIoAEfE2LAmUBttUOak7gtaofRFi4EYpfa7KVuDSU7BTeWej6XWAUeiyRjgpALh4dOT64o9T1DZmMveZtTm1kVJoIttgUDBEZsqQ0HDBG6kHmiGVhAWNnN5wRXpwRXqudyoy1vuB/9rsAxu+xqDzGPNZbRYIF85E0zIzhKGTDo5Ib00n+2HT9IhJAkZIWmVEEq7W6hwCQna9tUNW7sDyXrD/anYTRGelD8sIJG9EPS+0DSNwRHhkz2kwFmNGpZonhUQbmJ468ZvHp5qVzkuear7aE4Cs8eYDhUGRRL9hA2gyTcNBnpkkIH8hGUcwmFRHYMMUpsY0Z2Qj3Ubf4OzBsthUxJ7wuH0umT8AX05+yMM2HnfqI8xv6rCxiJMwyLGzaWjdO3DIY1Bwl65xn8veUPTETGirNBb9Z8HYYW2ugyZ03xt+s8XUoP04cBBQfuDc0Vl91XaPiw8FKkyF+a5m5XRl4r7ljNeAIWr9U3loniV0kxaEMV0ZDmba4xcCrAjNA5RFOXJfzNchjzWodxbSbGVGYGHOB63DUOAfgbIwHb2EuQ4/x2g5YoloHzm6nisv/4JjxhzQQZlMY3rKtDKoUagb0j89pYD7BhYE9KJuufloYT7Qolp5OIj8vGdHQItNYrS08wPYhH0K5BYhseNOISQMyjYlZcKkBKBR25mAkTrP910NeGERQAz5OGlLVtQdYmQV0MqwyaS84dJ6l03jKnP52RORZ42DdjH3kwa8apvS3uuSdOFmFBS+xQs2JoXCERfCgmbZBFbPwXwmqUR896XB8sUeKoWUsConOtnz2znHvpVpjUACUkZ0pYXidCKHIpCPMuG4Wy9sFi9UNAt+corrxlzG2ynR6ocCAboMOqFFFGZH3YGxL7QIOCs+Ia0LqKAzOlJyF+qoeFbHKWyB8RoZRB7B5nQcGVbMCcX4NenoJY6bUXgpZ4/euuo2aXTnZcgcL7CiV7NXFewMo3TxuhMjqGVv5CegakyylYy/rCCf0YjITbQrjU5hrLE7Ik4nS5CwhnEZdL29SCNWTsqvmDWEdrtRiHhLnAPpkB5QEI7vVUE5IlluJcfLjJSUsBwVw2A98VMrFVviN+vwAKuVvTb6qvEWu2wUq5MhVfatydHs88Lr93BUhqLQFIRiC+a/1P5bn73HFMg5CceoJV7B9SCUzz0Q8KYDmofjgAcbcuaqPYaDWVgnAg2L4Awtc2cIQ3OUTjnbFUTbAb/KVHcWzDoDlyvwQdSURpCaW5i5Q2x4P1WizIXim+DowP6lWB2BP3gP7NCln/RVXb2x3AMVNtgQsisu5cEPQwE/DRLzwe5YZ7pIMH4dx5QPmJyma9esiQCA4Wm+zzGWZtxCvOFiJLPnJRR949qjUd/r/cAh3ZQHKWAwZuB2ON6ZJ+/xB7dV/FfC6pSAp5qnXRLCdeMjzGls+P/i+WG+zG/2uwuQJ0O8vdURio/8jF1BgNFV7E54hErcjrM/56gIwlS3WwjckSFoG5NBFGKEhVhBpcCAYAFr9ZsAuGa/9xuekBCpb/9dOOCo9B3dNrKK4suc/hqkjPLc0dUHt7IQRsx9nZvVprjpUbzTi7YDCw7D+SZThD8ccmE/gETjoJLZEMPi9h17boEaPFfGFPwU9MYA64pRaeBlo8YFH0/SSxsL0pFopmAk641W4iERfYIwXC++cQedGVSZW3+RfPwgBSwlQGOGKOWZoBUIGqbd71OxIwYQwoNWcCVQc297uQ3kAwnxHVXHhoa4NkrEAOO8WU5OPrjvF/pwpHmH76w6BiG66QfgEuNS90fqoZCGMm7Oem6f8MKI7yfHvikWqv2RY8fYDGVCQLGoHBK+7gweJGf3eikJADU+aRJjA9RxQljZGPzGUPOoD8PQWMJlbdqaGmZo+LAg2p+R/kNRfhEkwwdYhAZvhiN33K3NF02R33CpmbiBeWNrWEl6AIaR543XeYGFKWoaxO9tIWkYFDdsSwezg84l9518tHDWB2SISS/1AyooKPzXEcvmygRDum4lroRhKDghK0QZeA8thQrnrgdrSpAx3p1QlFGZrikeFYYxkxTTPGXN4MELp8nBHLtkKE5heCw4ejVoDAGuotXHww0jNib57ZTNKN/LtCNWnQzH0AIw9zR4h8RQLHDbJlGQrIUxpgFElLHe5gjl2V/v7tzitrmGOedGKTJycYl3MkjF6lfGT4hfj9CkndQCMvBKBDXi1nFQyVwdzy4edjARZpGNk4cmod7gBmtgSJwe2akd31eFhTfzBFFiMQmXb/PmnuQDEOH/3mIAO4JzyK85Bn9gQr3+2OLp3OFiQ4TAq2ydt7l2FL9jvP1zZCK3hjhQP22D4MkyqPAEbqAJd0Hg8iT/rJRYKZi4x57PPQJxXYD9B8omfeC1HqLwP4VAm3z+URCiLLx0szuuDv+rSw7h2O/FyqZOA1jhlZmqU+E9L7nfual4No00EUVHqkiSFWjBEwyXh+jmbg8caUsui8/NgXlJSUf8npt2wjKjNoiPbOZVsMY8/66WFLuSOPG3WFG27rf61gXWgC5etNRJLN9C5zzdbyjhkqThLTXeRknAN9CTgGu8yx3KQ86b3YLATkYglNAYKKSTZHRcUjPQw9Ys7zxOEaFe2b0wSSitgBMD3AU/QiuYEgza9oEWJX7BBivFtXpCxGCX/Xhf4jNBbgPFREWv94goCl+M3MvI1L+9YE+hvtH0H30MrkQq+CxyCwHQX8X/kFS9wcPt9JzN+hH8NDJJIKwA3L0BQUAxZ9FTxYyBkyVzA4ZV9c5h8jqzJ5AkvqZeRBt3538teKyNKNmVD+AQ8Vcd2NJYEkFm+jMVzX6jcpzS4QfAQ56k7Jv815QeIUOGFlCsljNI2q24dp/Bovsu8wHGRPA5ceYYV/BpWH02XW9q+1NtLP+BGn08WUqCxAQJ28cTHXOKIwPI7qVba4/Tz066GD5QT4WGE+QVbf53lMA2cAERACaWGcTGoROdLosu+81POPWJ8GNegv7Fyyb+vyx2r+THe+AQNURGCmWwxIoMvceROxZ5rivIQhYI7QunjO2CuPz2NLNFhAD3bEDdnrfEs4f8MRTPLR6us/w6tW76TfE9QOE1PJRgk2odrATKj+r1+yen4eAxGWyZmIWBuQgHmZc+M/28B714hngRxP2RJaBHvytCOe6SSlwgAN47QAeWzXcVfFu/3FX5+aofF13+h6n+WhUPQtjOGTOKLSAPvHLZD1t6bYjtoIUdA+K2dZOYktVEOtrtuHvGpqq1TcqG7UHoBJWVbOcGFvhiAGj4seYXYGsN2MnDWbGP17HL87jLea4DQzpoq98yT97+JEtIZAcTSGgHBOIl9j+dWVz+9zKOi0iWCZA7cevwkYrNDzWv3v3G6qoeZVNuTDCJ83RY8+VfHL2oMLS/MUAgDBpf7780+K3mB9Mh/nnG+OXjPwv9nQu5HRoxhv8C1VcqvfbUZQYAAAGAaUNDUHNSR0IgSUVDNjE5NjYtMi4xAAB4nHWRzytEURTHP/OGiBFiYWHxElbIj5rYKCMNNUljlF+bN29+qZnxem8mTbbKVlFi49eCv4CtslaKSMlOWRMb9Jw3T41k7u3e87nfe87p3HNBiaT1jFXRC5lszgwHA+rs3Lxa9YQXhUaZ1ZpuGSNTUyHKjvdbPI697nZylff7d9TG4pYOnmrhYd0wc8LjwqGVnOHwlnCzntJiwifCXaYUKHzj6FGXnx1OuvzpsBkJj4LSIKwmf3H0F+spMyMsL6c9k87rP/U4L/HFszPTYttktWIRJkgAlQnGGMVPH0Oy++mmnx45USa+txg/ybLE6rIbFDBZIkmKHF2i5iV7XGxC9LjMNAWn/3/7aiUG+t3svgBUPtr2awdUbcLXhm1/HNj21yF4H+A8W4pf3ofBN9E3Slr7HtSvwelFSYtuw9k6tNwbmqkVJa8sJZGAl2Oom4OmK6hZcHv2c8/RHURW5asuYWcXOsW/fvEb3OVnp+cEcecAABHNaVRYdFhNTDpjb20uYWRvYmUueG1wAAAAAAA8P3hwYWNrZXQgYmVnaW49Iu+7vyIgaWQ9Ilc1TTBNcENlaGlIenJlU3pOVGN6a2M5ZCI/Pgo8eDp4bXBtZXRhIHhtbG5zOng9ImFkb2JlOm5zOm1ldGEvIiB4OnhtcHRrPSJYTVAgQ29yZSA0LjQuMC1FeGl2MiI+CiA8cmRmOlJERiB4bWxuczpyZGY9Imh0dHA6Ly93d3cudzMub3JnLzE5OTkvMDIvMjItcmRmLXN5bnRheC1ucyMiPgogIDxyZGY6RGVzY3JpcHRpb24gcmRmOmFib3V0PSIiCiAgICB4bWxuczppcHRjRXh0PSJodHRwOi8vaXB0Yy5vcmcvc3RkL0lwdGM0eG1wRXh0LzIwMDgtMDItMjkvIgogICAgeG1sbnM6eG1wTU09Imh0dHA6Ly9ucy5hZG9iZS5jb20veGFwLzEuMC9tbS8iCiAgICB4bWxuczpzdEV2dD0iaHR0cDovL25zLmFkb2JlLmNvbS94YXAvMS4wL3NUeXBlL1Jlc291cmNlRXZlbnQjIgogICAgeG1sbnM6cGx1cz0iaHR0cDovL25zLnVzZXBsdXMub3JnL2xkZi94bXAvMS4wLyIKICAgIHhtbG5zOkdJTVA9Imh0dHA6Ly93d3cuZ2ltcC5vcmcveG1wLyIKICAgIHhtbG5zOmRjPSJodHRwOi8vcHVybC5vcmcvZGMvZWxlbWVudHMvMS4xLyIKICAgIHhtbG5zOmV4aWY9Imh0dHA6Ly9ucy5hZG9iZS5jb20vZXhpZi8xLjAvIgogICAgeG1sbnM6cGhvdG9zaG9wPSJodHRwOi8vbnMuYWRvYmUuY29tL3Bob3Rvc2hvcC8xLjAvIgogICAgeG1sbnM6dGlmZj0iaHR0cDovL25zLmFkb2JlLmNvbS90aWZmLzEuMC8iCiAgICB4bWxuczp4bXA9Imh0dHA6Ly9ucy5hZG9iZS5jb20veGFwLzEuMC8iCiAgIHhtcE1NOkRvY3VtZW50SUQ9ImdpbXA6ZG9jaWQ6Z2ltcDpkMjQzMzBmMS1iYjZiLTQyNmQtOTE4Mi1iZWQ4YTAwZTM5M2UiCiAgIHhtcE1NOkluc3RhbmNlSUQ9InhtcC5paWQ6ZGQ2MjdhNjUtYTVkNC00NWIzLWEyY2YtMTU5ZTZhYTdjYmUzIgogICB4bXBNTTpPcmlnaW5hbERvY3VtZW50SUQ9InhtcC5kaWQ6Nzg1ZDJlZjQtYTZhYy00Y2RkLThiYWUtNzVmODg4ZjVhMWU3IgogICBHSU1QOkFQST0iMi4wIgogICBHSU1QOlBsYXRmb3JtPSJMaW51eCIKICAgR0lNUDpUaW1lU3RhbXA9IjE2MzU0OTY5NTMzNDk4MjkiCiAgIEdJTVA6VmVyc2lvbj0iMi4xMC4xOCIKICAgZGM6Rm9ybWF0PSJpbWFnZS9wbmciCiAgIGV4aWY6UGl4ZWxYRGltZW5zaW9uPSI2MjgiCiAgIGV4aWY6UGl4ZWxZRGltZW5zaW9uPSI2MjgiCiAgIHBob3Rvc2hvcDpDb2xvck1vZGU9IjMiCiAgIHBob3Rvc2hvcDpJQ0NQcm9maWxlPSJzUkdCIElFQzYxOTY2LTIuMSIKICAgdGlmZjpJbWFnZUxlbmd0aD0iNjI4IgogICB0aWZmOkltYWdlV2lkdGg9IjYyOCIKICAgdGlmZjpSZXNvbHV0aW9uVW5pdD0iMiIKICAgdGlmZjpYUmVzb2x1dGlvbj0iMTQ0LjAiCiAgIHRpZmY6WVJlc29sdXRpb249IjE0NC4wIgogICB4bXA6Q3JlYXRvclRvb2w9IkdJTVAgMi4xMCIKICAgeG1wOk1ldGFkYXRhRGF0ZT0iMjAyMS0wMy0wMlQxNDoxODowMi0wMzowMCIKICAgeG1wOk1vZGlmeURhdGU9IjIwMjEtMDMtMDJUMTQ6MTg6MDItMDM6MDAiPgogICA8aXB0Y0V4dDpMb2NhdGlvbkNyZWF0ZWQ+CiAgICA8cmRmOkJhZy8+CiAgIDwvaXB0Y0V4dDpMb2NhdGlvbkNyZWF0ZWQ+CiAgIDxpcHRjRXh0OkxvY2F0aW9uU2hvd24+CiAgICA8cmRmOkJhZy8+CiAgIDwvaXB0Y0V4dDpMb2NhdGlvblNob3duPgogICA8aXB0Y0V4dDpBcnR3b3JrT3JPYmplY3Q+CiAgICA8cmRmOkJhZy8+CiAgIDwvaXB0Y0V4dDpBcnR3b3JrT3JPYmplY3Q+CiAgIDxpcHRjRXh0OlJlZ2lzdHJ5SWQ+CiAgICA8cmRmOkJhZy8+CiAgIDwvaXB0Y0V4dDpSZWdpc3RyeUlkPgogICA8eG1wTU06SGlzdG9yeT4KICAgIDxyZGY6U2VxPgogICAgIDxyZGY6bGkKICAgICAgc3RFdnQ6YWN0aW9uPSJwcm9kdWNlZCIKICAgICAgc3RFdnQ6c29mdHdhcmVBZ2VudD0iQWZmaW5pdHkgUGhvdG8gMS45LjEiCiAgICAgIHN0RXZ0OndoZW49IjIwMjEtMDMtMDJUMTQ6MTg6MDItMDM6MDAiLz4KICAgICA8cmRmOmxpCiAgICAgIHN0RXZ0OmFjdGlvbj0ic2F2ZWQiCiAgICAgIHN0RXZ0OmNoYW5nZWQ9Ii8iCiAgICAgIHN0RXZ0Omluc3RhbmNlSUQ9InhtcC5paWQ6MDY4ZTE5MGEtMjgyMC00ZDk3LWJmMmUtODMzNDM4ZjAxZGFlIgogICAgICBzdEV2dDpzb2Z0d2FyZUFnZW50PSJHaW1wIDIuMTAgKExpbnV4KSIKICAgICAgc3RFdnQ6d2hlbj0iKzAyOjAwIi8+CiAgICA8L3JkZjpTZXE+CiAgIDwveG1wTU06SGlzdG9yeT4KICAgPHBsdXM6SW1hZ2VTdXBwbGllcj4KICAgIDxyZGY6U2VxLz4KICAgPC9wbHVzOkltYWdlU3VwcGxpZXI+CiAgIDxwbHVzOkltYWdlQ3JlYXRvcj4KICAgIDxyZGY6U2VxLz4KICAgPC9wbHVzOkltYWdlQ3JlYXRvcj4KICAgPHBsdXM6Q29weXJpZ2h0T3duZXI+CiAgICA8cmRmOlNlcS8+CiAgIDwvcGx1czpDb3B5cmlnaHRPd25lcj4KICAgPHBsdXM6TGljZW5zb3I+CiAgICA8cmRmOlNlcS8+CiAgIDwvcGx1czpMaWNlbnNvcj4KICA8L3JkZjpEZXNjcmlwdGlvbj4KIDwvcmRmOlJERj4KPC94OnhtcG1ldGE+CiAgICAgICAgICAgICAgICAgICAgICAgICAgICAgICAgICAgICAgICAgICAgICAgICAgICAgICAgICAgICAgICAgICAgICAgICAgICAgICAgICAgICAgICAgICAgICAgICAgICAKICAgICAgICAgICAgICAgICAgICAgICAgICAgICAgICAgICAgICAgICAgICAgICAgICAgICAgICAgICAgICAgICAgICAgICAgICAgICAgICAgICAgICAgICAgICAgICAgICAgIAogICAgICAgICAgICAgICAgICAgICAgICAgICAgICAgICAgICAgICAgICAgICAgICAgICAgICAgICAgICAgICAgICAgICAgICAgICAgICAgICAgICAgICAgICAgICAgICAgICAgCiAgICAgICAgICAgICAgICAgICAgICAgICAgICAgICAgICAgICAgICAgICAgICAgICAgICAgICAgICAgICAgICAgICAgICAgICAgICAgICAgICAgICAgICAgICAgICAgICAgICAKICAgICAgICAgICAgICAgICAgICAgICAgICAgICAgICAgICAgICAgICAgICAgICAgICAgICAgICAgICAgICAgICAgICAgICAgICAgICAgICAgICAgICAgICAgICAgICAgICAgIAogICAgICAgICAgICAgICAgICAgICAgICAgICAgICAgICAgICAgICAgICAgICAgICAgICAgICAgICAgICAgICAgICAgICAgICAgICAgICAgICAgICAgICAgICAgICAgICAgICAgCiAgICAgICAgICAgICAgICAgICAgICAgICAgICAgICAgICAgICAgICAgICAgICAgICAgICAgICAgICAgICAgICAgICAgICAgICAgICAgICAgICAgICAgICAgICAgICAgICAgICAKICAgICAgICAgICAgICAgICAgICAgICAgICAgICAgICAgICAgICAgICAgICAgICAgICAgICAgICAgICAgICAgICAgICAgICAgICAgICAgICAgICAgICAgICAgICAgICAgICAgIAogICAgICAgICAgICAgICAgICAgICAgICAgICAgICAgICAgICAgICAgICAgICAgICAgICAgICAgICAgICAgICAgICAgICAgICAgICAgICAgICAgICAgICAgICAgICAgICAgICAgCiAgICAgICAgICAgICAgICAgICAgICAgICAgICAgICAgICAgICAgICAgICAgICAgICAgICAgICAgICAgICAgICAgICAgICAgICAgICAgICAgICAgICAgICAgICAgICAgICAgICAKICAgICAgICAgICAgICAgICAgICAgICAgICAgICAgICAgICAgICAgICAgICAgICAgICAgICAgICAgICAgICAgICAgICAgICAgICAgICAgICAgICAgICAgICAgICAgICAgICAgIAogICAgICAgICAgICAgICAgICAgICAgICAgICAgICAgICAgICAgICAgICAgICAgICAgICAgICAgICAgICAgICAgICAgICAgICAgICAgICAgICAgICAgICAgICAgICAgICAgICAgCiAgICAgICAgICAgICAgICAgICAgICAgICAgICAgICAgICAgICAgICAgICAgICAgICAgICAgICAgICAgICAgICAgICAgICAgICAgICAgICAgICAgICAgICAgICAgICAgICAgICAKICAgICAgICAgICAgICAgICAgICAgICAgICAgICAgICAgICAgICAgICAgICAgICAgICAgICAgICAgICAgICAgICAgICAgICAgICAgICAgICAgICAgICAgICAgICAgICAgICAgIAogICAgICAgICAgICAgICAgICAgICAgICAgICAgICAgICAgICAgICAgICAgICAgICAgICAgICAgICAgICAgICAgICAgICAgICAgICAgICAgICAgICAgICAgICAgICAgICAgICAgCiAgICAgICAgICAgICAgICAgICAgICAgICAgICAgICAgICAgICAgICAgICAgICAgICAgICAgICAgICAgICAgICAgICAgICAgICAgICAgICAgICAgICAgICAgICAgICAgICAgICAKICAgICAgICAgICAgICAgICAgICAgICAgICAgICAgICAgICAgICAgICAgICAgICAgICAgICAgICAgICAgICAgICAgICAgICAgICAgICAgICAgICAgICAgICAgICAgICAgICAgIAogICAgICAgICAgICAgICAgICAgICAgICAgICAgICAgICAgICAgICAgICAgICAgICAgICAgICAgICAgICAgICAgICAgICAgICAgICAgICAgICAgICAgICAgICAgICAgICAgICAgCiAgICAgICAgICAgICAgICAgICAgICAgICAgICAgICAgICAgICAgICAgICAgICAgICAgICAgICAgICAgICAgICAgICAgICAgICAgICAgICAgICAgICAgICAgICAgICAgICAgICAKICAgICAgICAgICAgICAgICAgICAgICAgICAgICAgICAgICAgICAgICAgICAgICAgICAgICAgICAgICAgICAgICAgICAgICAgICAgICAgICAgICAgICAgICAgICAgICAgICAgIAogICAgICAgICAgICAgICAgICAgICAgICAgICAKPD94cGFja2V0IGVuZD0idyI/PiswhXcAAAGAaUNDUHNSR0IgSUVDNjE5NjYtMi4xAAAokXWRzytEURTHP/OGiBFiYWHxElbIj5rYKCMNNUljlF+bN29+qZnxem8mTbbKVlFi49eCv4CtslaKSMlOWRMb9Jw3T41k7u3e87nfe87p3HNBiaT1jFXRC5lszgwHA+rs3Lxa9YQXhUaZ1ZpuGSNTUyHKjvdbPI697nZylff7d9TG4pYOnmrhYd0wc8LjwqGVnOHwlnCzntJiwifCXaYUKHzj6FGXnx1OuvzpsBkJj4LSIKwmf3H0F+spMyMsL6c9k87rP/U4L/HFszPTYttktWIRJkgAlQnGGMVPH0Oy++mmnx45USa+txg/ybLE6rIbFDBZIkmKHF2i5iV7XGxC9LjMNAWn/3/7aiUG+t3svgBUPtr2awdUbcLXhm1/HNj21yF4H+A8W4pf3ofBN9E3Slr7HtSvwelFSYtuw9k6tNwbmqkVJa8sJZGAl2Oom4OmK6hZcHv2c8/RHURW5asuYWcXOsW/fvEb3OVnp9OlNZgAAAAGYktHRAAAAAAAAPlDu38AAAAJcEhZcwAAFiUAABYlAUlSJPAAAAAHdElNRQflCh0IKiFPjzq8AAAdjklEQVR42u3deZxcVZ338c/v3rq3upN0dpKQkBACISICSeiGkBankg4aqqKD24z7PDrjOo8OOo4iJg6mI+Lg4/iIiAICIktcGDKklwDdoTF0iOkouD8PKqiMigMCgQRIurvO/HGrJWKWXmq5t+r7fr3yytZdfeucc391zr2/+zsgIiIiIiIiIiIiIiIiIiIiIiIiIiIiIiIiIiIiIiIiIiIiIiIiIiIiIiIiIiIiIiIiIiIiIiIiIiIiIiIiIiIiIiIiIiIiIiIiIiIiIiIiIiIiIiIiIiIiIiIiIiIiIiIiIiIiIiIiIiIiIiIiIiIiIiIiIiIiIiIiIiIiIiIiIiIiIiIiIiIiIiIiIiIiIiIiIiIiIiIiIrXA1AQyGl2ZFdMM7xggAB538PCqnu5+tYwoAEnJ3JlpafDg/cCbgeOBEHgUuAdo9Rj8wYqeHqeWkuFIqQlk+LOeljrgcuBNgH/Af80AXgOc6fDfUAhGIkfkqQlkODozGQzeZdHMxz/El81xcOXtmRUT1GKiACRFk8Y/EdgwjDFzUgrvU52ZjJb3ogAkY3dXpqXOwZVAwzC/5b0h/jlqOVEAkjHLwweAl43gWwLgi92ZVUer9UQBSEatO9NyJvBRRn7H9ARwn7wjc45udIgCkIxm6bVqIvA5YOoovt2At/jks2pJUQCSkQYf8rj3A2eN4WXqgX/rzqyaoRYVBSAZtjzudODDjD1ZdRG41q7MikCtKgpAckRdmZbxwL8Dk4v0ku8wPC3FRAFIjsyiRy3OLuJLpoAvdGdaZql15QVjTeTPZj+LDXqBcSV4+Y0eg29e0dOTV0uLZkDyZzozmdDg6hIFH4DX5vFfr5YWBSB5YfCxEP9CYGkJf0wAXNKdaZmrFhcFIPmTEP8M4PwyLMvnA61bMy2hWl0UgISuzMpJwGeASWX6kX/r4Ly7Mhk1vgKQ1PrSy7D3Udy7XkdSB2wYxNNSTAFIanvp5S0DLqjAWFho2PruzCqNQQUgqUVbMivqwS4HJlboEN4G+VeqJxSApMbcmslYgH0MWFLZ8WeXd2VWKEFRAUhqyUS85WAficGhzDG8z96ZyahsRw06Yqe7bLYOOAWzycBv2Lv356ZM1kTryqw8CuwyIB2TQ3qdh98O3KzeSbZ1Tc3TgFOBcZj7Wf/+/K8uuX/HIePFYXM+XC43D/gS8FdE2bGPA9tx7jPk89+1LVsG1eTJ0pnJ+CH+/yF63itOM+AHgVe09HT/Qr2UPGubmqcYvA14L7CgMLn5HfBZM764fmfvwIiWYC6XGwd8BcgBEwpfOx14FWZb8P1rXTZ7nJo+WUL8VcA7Yrj8XgBs6FKCYsJmPMuDdU3L322wi6h43SKijHcD5gCXOMfqEc+AXC53JrDjCD9/H3AVzl1KPv+wbdmiDenivfSabtgW4PSYHmIeeKuDm1b1dKvD4h14QqAF7NPAaUf48v/b2td7/sH+49DXgJybix0xKz8N/G/M3oDv/7vLZq8ln39EgSh+7sys9C266Hx6jA/TAy4x2AY8rF6L4VKrcXmdmf0VsBZ4aTE6/FAeAIa71/d04FOY9eL7H3XZrHZDiN2ZbS8D3peAQ50LXNqpu2KxckHj2al1Tc0vNbMbgdtGGHwGRh6AzH5JtK4bieOAT2PW7XK597hsVjtkxkB39KzX54HxCTnk14f4f6+ei8usp3lZYPmNQCfRFtwjvU5318gDUBDsBW4a5TGfBHwRs+0ul3uHy2br1Y2VZOuJbo0mZ8IGG7ozLSeq7ypnXdPyheuamq814w7gtUQ3o0bq/4HbfsiRebjvdLncfKLqeLPH8D7ywE9w7kM4122dnbo+VEZdmZUvN+w24pPzMxId+xk879yenn71ZHlcuPQsPI9jzLwLgTcz1sd0jE+5wfzaDd+7dxQB6LzzjP7+64ju7xfDHcDFOLfDOjr2qbtLvvSaAXYHR75LEVcDwAf2M/jlc3t69MFVQucvztj41MBUz9x7gQ8yur3gXmgvcHZrX+99I1+CAbZpkyssw4oVLF4OdGN2o8tmm10266vrSxZ8UoVHLU5J8NtIAReG+CepR0tnbWPzzIag/589c7uA1iIFH4B7wP30SGvtI+kFipmd6gOvxawNs6tcLrdUQ6D4HLYSeBfJf97vGKC1O7NS1xGLHnjOaljX1PwuM7YC/0ZUrbJYBoGbW/u27zv8Cm04gzmXW1uIjKXwJHALcLG1tz+oYTF2XZmVMwzrpLT1ncu9FHvvfgavPrenRx085sCzbJyZ/zrgA4XleSlSHn7tYNmGvt5HxjoDArgReLpE7TEZ+Hvguy6Xu8RlszM1REbvrkyL52GfoLJlNkqxFLs4xJuvHh698xdnvHVNzeea+d8BriFKSi1VvtXte/qDR470RcMuQO5yuU3AX5ehnXYDn8a5K62j4wkNm5HpzrSsAO4sLHWrTQe4V7b0bFU1hhH4eFNzyoMm4F+Bc8qwLN+H0dK6s7f3SF84kgO5ukztNQm4BLMdLpd7p8vlpmgIDXvpNbXQT9V6cT8L9i719LCXWv66puWne/AtosdbXkF5rgn+xPcGdw7nC4c/A8pm05g9AMwrYxs64CfAZeTzN1tn59MaVgdXKLNxBfDOKn+rj4Bb2dKz9Wfq9UMHHjPvFLD3Am+hdBtNHsr7Wvt6rxjOFw47Ghbydq4t8xsx4CXA5Xheu8vlXu1Wrw40xP5SiP864K018FZngV3SnVk5Tr3+5y5YvIy1jc0LzfzLwLqJ7oKWu532WPTYxrCMdDp2A/BMBdo2RbRtzEZ8/26XzWbd6tV6WPFPS6+WY4ANRNvd1IJzwd6qnj9g1tPUPCsI/FYzthEVBZtaoUPZuH7nvcO+djuyAGT2K6CShVpC4CzMbsX3N7tcbrGWXhnf4JPACTX0tgPgk12ZlpNrvf/XNS0fv66p+SKDHwEfByp9F/lrI13ijIjL5V4NfJt4JLj1U8ghYnDwp7VWIrYzkyGN/2oH36R0t1PjrCMPrzunp/vZGgw8DWCvAT5BVE0yDr4PNLf29T43kqXNSG0Dfk5UejEOn4RvANbg+1912ewXyecftC1bauI2bRp/loNLazT4AGQ9+F/AFbXyhtc2Lm8ws9cD5xO/x2y+PpLgM/IlGEAQ/BH4z5i98QnAP2F2D75/qcvlFrrVq63aB6ODTwHH1/gq5OLuzKpF1f4mP97UXL+uqfmvzawTuCqGwecxh9s80m8a1UnqcrkzgK3Et8DVw8CVOPcl6+h4vBoHZHem5bzCUlgP9MLdg3iveHnPnVVXYeETTWfhnJfD+GfgLOJ7o+EWs/wb1++8d0SlU0Z3HcfsPkZeLbGc5gLrMbvf5XIfcdnsxGoalHdlVs0ELlfw+ZOzffIfrrY3ta5p+RKHdzvGLcCKGAefQeD6kQafUc+ACrOgvyN6niQJT1s/jHP/Amwin99nW7YkOfh4edzXiBLM5Hm7wa1q6dm6K8lv4uOnn+V5nr0Y7ONEVQiTkPf2EzPXvH7n9t0j/caxBI92oo3HkmAuZhsxuxvff7XL5RJbqzqPew3wesWbvzAJ7DNdmRWJnO2evzhjaxubj/U87/Ng3yW6uZKE4OOAb44m+IxpBlSYBX0ZeHcSJxI49zngDuvo2J+Ug+7OtMwlysNaqHhziPgMH8sz+NlzErJ9+PmLMzYh1X+8Gf8AvB2YkbA2f8rMnb1+5/Yfjuabx7p8upHDbLkRYysw+wZm33K53MokVGa8K7MqIHqaWcHn8OP5Ix5+IhJU1zYtn9EQ9K8zowf4aAKDD8Auz8v/eLTfPLYZ0Jo1KZzrA5KckfwMUa3qT1h7+4/ieIC3ZjI04L/R4DpGviVKLbob3OqWnq3PxfHg1jYum2jm/wPwHqI0iqRWrcwDb2vt671xLJ8Yo2ZtbQNE+8cn2TjgPKKCaF912eyCuB1gAzbTooRDBZ/heRnYP8btoC5YvCxY19T8djP/J0T9uZBkl8x9zPPyt44phoz1CNyaNVNw7hdU7uG3YnsWuALnvoBzv6n0NkJ3ZjKeh38T8LeKKyOyD2hq6emu6Kz2/MUZxqf66z3jHKJntZqKcd7FxCH3fC/LDKhgqKZztagHPoTZdjzvApfLza7kwXh4b1LwGZU0cEV3pqVidzzXNi4LGoL953jRxn63AmdUUfDJO9xVY32RojSGW7PmbJzbSnU+k/Rr4Cqcu8o6Ov67nD+4K9OyyKLyqnMVT0ZlEPiEx+CnV5RxX7G1jcsCM2852PuJyhhX43nxHcxlWnduH1O7FqdhnPs+cF9helltjiXKqn6jy+U+j3MbraNjT6l/aGEbmk8TbUsjo+MDH8zjdwE7S/3DLli8zILAawL7GFHt5fFV3LZf9b38mIN6cS6ARfvIb6zixvaAk4EvY7bTZbNvdatXl/iCsL0FyFXRlL1SpgOXdGdWNZR01tPUfFwQ+F8uVCI8r8qDz2+Ajot27Bj7KC/WEblc7nhgR6HDq50jehbuo8B3rL29qHWIujIrFxm2FZit+FE0HzHcZ1f2bC3aUmxd03Iz3CyHdyFRLe50jbTlV3x/8H0X7dgx5mTP4gWgaB/5G4E31tg1hq3AJeTz26yzs3+sL9iVWVlv2PXA6xQziuoJh1vhk//BijFubri2cZmZeTPB/g74cI186A7ZB66ltW97bzFerGg5CIV95K8H9tdQZ/iFtX4nnnedy+WWuNWrR51V3Z1ZiWF/U5jCS3FNMezKQfwxbfG89vTlR5n5/wLWC1xSY8EH4H4zflisFyvu1Xnn7i1s3fOSGuuUEHgTUWXGTS6Xu4zBwe+PtDKjg/kWDWoV3C+NMwwuBNaNOPA0NU+0aFb6YeCkGm2/PHDT+p3bi7Y9VlGzMK2jYzdRtURXox00EXgbcDu+/wWXzQ779nlnJhMYdjkwS3GipD7YnWk5a7hffGHjS+vXNTW/3aCHKOv/pBpuu0cx2or5gqVIA78J2Fvjg3wq8D7MfuByuUtdNnvUkadQ/juIdq6U0hoPfKEr03LEu2Jrm5a3+Oa2EZVAXaKZKXf53uBDRZ20lOIoXS7XAZyrsf4nTwLrce4a8vndLyyI1pVpOdHgLnTXq1wccCm4j71wn/m1jcsDM84CW0t0fU8i/Q5eu6Gvd3MxX7RUD8Jdqf76M5OBz2F2L77/LpfNThv6jzszK8cVrvso+JSPAe8Bywz9wwWNZ/vrGpc3mtmNYF0KPn/hVzjrKkVHFP/jZc2aepz7OTBH/XZQ9+Hc5/c7d8s9z+5/M3AZetK9Evr2O5fr3bvvGDP+kagE6mQ1y0H9a2tf7/pEBKDCMmwD0dO/cogpbR7uf2Bf/5xHBgZn59UeFVmK/XFgcNeP9/UvdAo8hx2rwILWvt7/KvYLl7IWyXVEiXpycIEHTYvSweyldSFTfU8tUoGl2JSU3zTJ8xR8Dq+zFMGn1AHoV0SVBuUIU9CJvsdpdSGn1YU0eJ4e/iojD1iUDrS/0eFdU8r2L82J1d4+QLRRvVP/DS8QTfM9GutDTk4HNHimQFQm9Z5xfKjcz0N4CCvdRKLU8/6twIPqw5EFohkpnyV1ISeGAeM9haFymJVKMU3L4IP5uu8Nlqy2dmlbPAgeAzapD0cuZcacwGdpXciLwoB6UyAq6VLMYEGYIlQ7H2gv8I2Lduwo2SqmpAGo8IDqLSgzevQx3IzZgc/S+pDjghSBTpCSGe95HBv4Wvo+7zuOwV+WNPCXfk1h9wPfU1+OTdqM48IUZ9SHHBukdNG0hEuxKVqKDbl5Q9+OfYkOQNbW9izwDaInaaUIgej4MMUZ9WlmpXwFoiLzDY4PUwSaBj0IdJX6h5Qr1N8G/F7Du3jqPePF6YDT60MFohIsxeYHqVrPYdvc2tdb8nO2LAHI2tv/C+jU0C6+CZ7HSemAU+tCpvnKISqWo4OUX8N3xZ4BV5attsrXwmZJ3Uc+9gyY4nucUheyWIGoaCfGwjCo1Yv+P3V5t6Nc7Vwu24AHNLRL25lTfI+X1IW8JB0wQTlEY1LnGSfUXoKiA67f8L17+8s1ZsvzKd3WNkgJU7rleT5wVMqnsT7NyWnlEI3FUSmfGb5fS9eDdoMr2xZb5V3kml0drS+lXJ07M+Vz5rg0J4Qp0gpEo2rD48KUX1c7bdfW2rf90eoMQM7tJrolL2U+ieYFKRrrQxYEKeoUiEak3otysGrgkrQDvlTusVm+CVB7O8C1KCeoItJmzA9TLCkkM6YUh0a0FJueqvpkhx89O5DaWc4fWImgfh9wv4Z0BT/RzVgQpmisSzM38PEViIa3FAuq/lmxa+r8wcFyt2uZJ3luD/BtDenKMmCcZ5wQBjTVpZnp6xmo4SzFqrhsx5Nm7tYNu+4pe2Av78Dv6IDoAdU/akjHJxCdXBcwVJlRT0Id2syUz4zqXIq15/Pebysxs6zAqLeHiGoFSYxM8j0WFyozTlEy4yEtqL47ioNm7uYNu+4pe7pBRQKQtbX1E21guF/DOX6m+B6n1kWVGSerROxfqCs8EFxF7fJT52xHJX5wJWfbdwO/0HCOJ5+oMuOpyqo+qOnVtRTb1NrXW5FLIhULQNbe/gRwK6oZHWspi25BL60LOTFUDtGBJ8786sipeoIK3hSq9PXGb6HM6IQEIuOYIKpDtDBUZUaI7orNT/5S7F5wP6rJAGTt7T8Adun0TtaMaG4QVWacG/g1H4hmRgmKSX1WbNDhbmjt216xVUgc7rh+Rad18qTNWBgGNNaFzKvhQGTACWHKT+hdsUc8c7dXeilb4R60W4H/1imd3GXI8WHA4rqgZiszRsE4kQmKt6zfee/jNR2ArK3tOVSmI/GzgIZCZcal9SEzU7WXVT0t5XN00u6Kmbuy0ocQj6RXs+vQPvJVE4henA5YUhcyuYZKmhpwXJhy9WZJGcfbfS//UwUgAOceBL6jU7h6TsbJvseSQlb1xBpJZgzN7IQwlYywa1xRyg0HExWArL29H7gO5QRVXSCa5nucXh/y4nTAuBpIZpyajKXYo4bbHIcDiVOwvh34tU7b6gxEM1M+jYVtpqs5q9qAeWGK8fF+jxud4ykFoD/rOXsU+E+drtUrVdhmenFdyMIqLhGbNuO4ILYVFPcBN1Yy9yeWAcja2vKYfQt4VqdqdQvNmDtUIrZKs6qnpXxmxnMp1ufgR3E5mLgF6e8Ro8aR0s8U5gcpzqwPmVtlt+6NaIvnGD4r9q09/UFsHn+KVQAq5ATdgC5G19yMaGE6qLr97lNmnJiO1bNiv8fY/Pn7e2JzQHFcpt6GMqNr0vgD9ruf4ftVUZlxiu8zOz5Lsa2+N/ibOLVP7PrY2tt/Ddyh07F2TfA8Tq4LOK0uZHrCS8TG6K7YPuCGi3bsiFWiZFz79mtoH/maNrTf/UsOKBGbVGkzFlT+rtgvsPy2uLVNPHvV97cBP9dpKEP73Z9WqMw4PqE5RBVOUHTAN1p33rtXAWg4n3633bYfuF6nnxw4UGekfM6oT3NSAve7N+DYMEWFnhV7jpjuSBzfea3Z9ahaohzkRD465dNYH8b1NvchFe72VWIxubW1r/cBBaCRDLS2tt+hzGg5hMCMY4MUpycsEE31vUrcFYtt0b+4X9n7KtpHXg4jXQhES+qSUyJ2fnnvij00yP4tCkCj813ghzrN5EjqC9tMn14IRHEe2KmonK3zyvPhevPFfX39CkCjWofZHqJtnEWOPFyItpleGAY01ac5KsZlMSb5ns0LUqU+//YTpbTEVqwDkLW1UQhAT+v0kpEY7xmnFLKq45jMaMAxgc9Er6RHdoeZe0gBaGyzoJ8Dd+mUklHNNDyPU+pCTq0LmRSzyowpMxaEKVKlOag8cOP6ndv749w/sQ9A1tY2QJQTpJrRMurZxlTfY3F9lMwYp/3uJ/kes1Ml2VHjITMX+w/upOS3bwV+qVNJxsIn2mb61LqQk2KSVW3AvMAvRZXITs/Lx/6h7mTUz472kVdOkBRp6QOzCvvdLwqDildmTJlxYhgUc1a2F7gpDkXnq2UGBHATsEenjxRLYMacwOescWkWhKmK1iGa6HvMC4q2FPu+7w/2JaEPkhOAguCHwH06baQUJ8H8IMWZ49LMC3zCCs2I5gUpGsa+FMsDGy/asWMgKW2fCLZpUx64VqeLlEqdPZ/MeEzKp9ybLfsGJ4QB/thi0OPA5qS0ebKKrJj9B6qWKCVW70UlYpfUhxxd5hKxE32PuWO7K7alta/3YQWgUsSftrbdwNd1ikjJxxrRNtMvKux3P8MvT9F8A+aMPkHRAVcnbfmbNNegnCApcyA6uS5gcWGb6VILzDg+TI1mKfZD52xbkto3eQHI7AFgu04NKXcgmuJ7NNZHJWIbSpzMOGlUSzF33YZd9ySqekTiAlAhM/oGnRJSKdN8j6V1IS9KR9tMlyoQzQ1SNAx/xvW0c9yctLZMZqVvs83A73QqSKX4FlVmXFIXsigdMK4EWdW+waL0sPOT2jyPRxWAyuMPQJtOA6m0wIzZhazq44Pi73c/wfOYHx5xKTYAXLN+5/bEFe9LZACytrY80QOq+3QKSByEZhwblma/+9mpFFMPX0n6Zw7Xl8R2S+5mS553P/ADDX2Jk6H97pvqQ+akilOZ0TcKQe2QX/LNPP27FYDKOQvavHkv8E20j7zEUJ0Zi9JRZcbZKX+s2c1M8KJnxQ7yMk862HRxXyInQInffvs24DENd4mr8Z7xonTAknTIUWOszHh0ymfyXy7FtuHs/yd2IZPo3g2CXxDVChKJtYm+x8mFbaan+6PLITpIBcUB4MYNu+7pT2q7JDoA2aZNDrgO6NcQlyScbEP73Q+ViB2pBs/j2OcTFH/tnN2R9DZJNt/fCvxKw1uSdNJNK5SIPWUUlRnnhKmh4HXbhl33PKEAVMlZkPaRl6R+dhKViB3a7364OUQesCides43NlZDMK4G1wJPaUhLIj9EiS4wn1HYZrp+GIFonOd946KdvTsVgOLQge3tvwU+ibZxlgQb2u9+aX3IcYfPqv5lHvehalmOVosrgQ4NY0m6tBnzwxRL60LmBf4L9w17Etw7zunZ+rgCULxmQXuAdwJ3awhLNSzLhva7b6pPD2VV73Hwzjxsq6b3WVXcmjXTcO4G4BXV+P6kZj3x5GD+3d97bv+3V/V0V032f1WeoG716gDf/yfgg8BsjV1JsAGiAnznW3t71e0KU9UzBJfLLQDeBrwWOAGo03iWhHgO+DFwBWYbra3tmWpdalY9l8tNBk4DXgYsA+YBk4Fxhd89jXepkP1EW+kMALuJnm28D+c243k7ra2tqjfjrLlrJC6bTWHWANQDAdCA2RycmwXMAWYVlm3TgOnAzMKfFaRkpJ4lKp73GPBo4c9/AH4L/AGzh3HuscLXDeLcc/j+M7Z5c83UudJF2oPPmHzMfJxLASnMAmAm+fxRmB1dCExDAeuoAwLV0UBaLVj1hgLKo8Dvifaqe6Tw77/HuT9g9gjOPYXZAM4N4HkDDAwM2pYtKh+jAFTC4PWqV01gcHAGzk3HbDowpRCsphZ+TSv828TC8m9yIWh5hV/+AX/2NPMae5cQJagO/Rp8wd+fAZ4sBI8nD1gG7ca5RzF7pLBE+iNmf+C55x63rq4BNasCUPWcIa985QScm0A+3wBMLCwRJwDjgfGYTca58cDQv48r/N+kwlKyvvD3VCGAHfgrVejnA3/ngL/7FQ5yQ5UMDgwOB/t96NdA4ff9OLcXs2eAPYVlzFPA3sKvJwv/vrfwdU8BT+Pc05g9g+8/QX//M9bZuV8jUAFIihHIzjuvnsHBAOcC8vmQ6BpXGvAxG5plRXcCnasDDLPwgKAUYFb//Au6NGO/c5jHbA/PV650OLeXocdmnHsWcJgNFILRANGF2TzO7Sv8vR/P24dz/QTBPmCfbdqkzSlFRERERERERERERERERERERERERERERERERERERERERERERERERERERERERERERERERERERERERERERERERERERERERERERERERERERERERERERERERERERERERERERERERERERERERERERERERERERERERERERERERERERERERERERERERERERERERERERERERERERERERERE5PD+B76EyrMpqH3QAAAAAElFTkSuQmCC;" parent="NN6T2k52rA_mcUEyvSS7-2" vertex="1">
          <mxGeometry x="783" y="790" width="65" height="65" as="geometry" />
        </mxCell>
        <mxCell id="NN6T2k52rA_mcUEyvSS7-36" value="API&lt;div&gt;Gateway&lt;/div&gt;" style="sketch=0;points=[[0,0,0],[0.25,0,0],[0.5,0,0],[0.75,0,0],[1,0,0],[0,1,0],[0.25,1,0],[0.5,1,0],[0.75,1,0],[1,1,0],[0,0.25,0],[0,0.5,0],[0,0.75,0],[1,0.25,0],[1,0.5,0],[1,0.75,0]];outlineConnect=0;fontColor=#232F3E;fillColor=#8C4FFF;strokeColor=#ffffff;dashed=0;verticalLabelPosition=bottom;verticalAlign=top;align=center;html=1;fontSize=12;fontStyle=0;aspect=fixed;shape=mxgraph.aws4.resourceIcon;resIcon=mxgraph.aws4.api_gateway;" parent="NN6T2k52rA_mcUEyvSS7-2" vertex="1">
          <mxGeometry x="940" y="810" width="65" height="65" as="geometry" />
        </mxCell>
        <mxCell id="NN6T2k52rA_mcUEyvSS7-37" value="Lambda&lt;div&gt;Function&lt;/div&gt;" style="sketch=0;points=[[0,0,0],[0.25,0,0],[0.5,0,0],[0.75,0,0],[1,0,0],[0,1,0],[0.25,1,0],[0.5,1,0],[0.75,1,0],[1,1,0],[0,0.25,0],[0,0.5,0],[0,0.75,0],[1,0.25,0],[1,0.5,0],[1,0.75,0]];outlineConnect=0;fontColor=#232F3E;fillColor=#ED7100;strokeColor=#ffffff;dashed=0;verticalLabelPosition=bottom;verticalAlign=top;align=center;html=1;fontSize=12;fontStyle=0;aspect=fixed;shape=mxgraph.aws4.resourceIcon;resIcon=mxgraph.aws4.lambda;" parent="NN6T2k52rA_mcUEyvSS7-2" vertex="1">
          <mxGeometry x="1080" y="810" width="65" height="65" as="geometry" />
        </mxCell>
        <mxCell id="NN6T2k52rA_mcUEyvSS7-3" value="03. Data" style="locked=1;" parent="0" />
        <mxCell id="NN6T2k52rA_mcUEyvSS7-38" value="DynamoDB" style="sketch=0;points=[[0,0,0],[0.25,0,0],[0.5,0,0],[0.75,0,0],[1,0,0],[0,1,0],[0.25,1,0],[0.5,1,0],[0.75,1,0],[1,1,0],[0,0.25,0],[0,0.5,0],[0,0.75,0],[1,0.25,0],[1,0.5,0],[1,0.75,0]];outlineConnect=0;fontColor=#232F3E;fillColor=#C925D1;strokeColor=#ffffff;dashed=0;verticalLabelPosition=bottom;verticalAlign=top;align=center;html=1;fontSize=13;fontStyle=1;aspect=fixed;shape=mxgraph.aws4.resourceIcon;resIcon=mxgraph.aws4.dynamodb;" parent="NN6T2k52rA_mcUEyvSS7-3" vertex="1">
          <mxGeometry x="1320" y="960" width="65" height="65" as="geometry" />
        </mxCell>
        <mxCell id="NN6T2k52rA_mcUEyvSS7-39" value="ECR" style="sketch=0;points=[[0,0,0],[0.25,0,0],[0.5,0,0],[0.75,0,0],[1,0,0],[0,1,0],[0.25,1,0],[0.5,1,0],[0.75,1,0],[1,1,0],[0,0.25,0],[0,0.5,0],[0,0.75,0],[1,0.25,0],[1,0.5,0],[1,0.75,0]];outlineConnect=0;fontColor=#232F3E;fillColor=#ED7100;strokeColor=#ffffff;dashed=0;verticalLabelPosition=bottom;verticalAlign=top;align=center;html=1;fontSize=13;fontStyle=1;aspect=fixed;shape=mxgraph.aws4.resourceIcon;resIcon=mxgraph.aws4.ecr;" parent="NN6T2k52rA_mcUEyvSS7-3" vertex="1">
          <mxGeometry x="1320" y="1169" width="65" height="65" as="geometry" />
        </mxCell>
        <mxCell id="NN6T2k52rA_mcUEyvSS7-4" value="04. AI" style="" parent="0" />
        <mxCell id="kyb-L3iPyzmrna6krbm1-2" value="" style="rounded=0;whiteSpace=wrap;html=1;fillColor=none;strokeColor=#6c8ebf;" vertex="1" parent="NN6T2k52rA_mcUEyvSS7-4">
          <mxGeometry x="1440" y="480" width="280" height="760" as="geometry" />
        </mxCell>
        <mxCell id="kyb-L3iPyzmrna6krbm1-3" value="Bedrock" style="sketch=0;points=[[0,0,0],[0.25,0,0],[0.5,0,0],[0.75,0,0],[1,0,0],[0,1,0],[0.25,1,0],[0.5,1,0],[0.75,1,0],[1,1,0],[0,0.25,0],[0,0.5,0],[0,0.75,0],[1,0.25,0],[1,0.5,0],[1,0.75,0]];outlineConnect=0;fontColor=#232F3E;fillColor=#01A88D;strokeColor=#ffffff;dashed=0;verticalLabelPosition=bottom;verticalAlign=top;align=center;html=1;fontSize=12;fontStyle=0;aspect=fixed;shape=mxgraph.aws4.resourceIcon;resIcon=mxgraph.aws4.bedrock;" vertex="1" parent="NN6T2k52rA_mcUEyvSS7-4">
          <mxGeometry x="1440" y="480" width="78" height="78" as="geometry" />
        </mxCell>
        <mxCell id="kyb-L3iPyzmrna6krbm1-5" value="Bedrock Agent" style="sketch=0;points=[[0,0,0],[0.25,0,0],[0.5,0,0],[0.75,0,0],[1,0,0],[0,1,0],[0.25,1,0],[0.5,1,0],[0.75,1,0],[1,1,0],[0,0.25,0],[0,0.5,0],[0,0.75,0],[1,0.25,0],[1,0.5,0],[1,0.75,0]];outlineConnect=0;fontColor=#232F3E;fillColor=#01A88D;strokeColor=#ffffff;dashed=0;verticalLabelPosition=bottom;verticalAlign=top;align=center;html=1;fontSize=12;fontStyle=0;aspect=fixed;shape=mxgraph.aws4.resourceIcon;resIcon=mxgraph.aws4.augmented_ai;" vertex="1" parent="NN6T2k52rA_mcUEyvSS7-4">
          <mxGeometry x="1530" y="720" width="78" height="78" as="geometry" />
        </mxCell>
        <mxCell id="NN6T2k52rA_mcUEyvSS7-5" value="05. Support" style="locked=1;" parent="0" />
      </root>
    </mxGraphModel>
  </diagram>
</mxfile>
